<svg id="Isolation_Mode" data-name="Isolation Mode" xmlns="http://www.w3.org/2000/svg" width="47" height="39.28" viewBox="0 0 47 39.28"><defs><style>.cls-1{fill:#bc9f7d;}</style></defs><title>cases-hands</title><path class="cls-1" d="M46.24,12.91,34.09.77A2.57,2.57,0,0,0,32.3,0a2.14,2.14,0,0,0-1.52.62L26.6,4.79A2.12,2.12,0,0,0,26,6.06a33.85,33.85,0,0,0-5.07.9A2.35,2.35,0,0,0,21,6.55,2.16,2.16,0,0,0,20.4,4.8L16.22.63A2.13,2.13,0,0,0,14.7,0a2.57,2.57,0,0,0-1.8.77L.76,12.92a2.36,2.36,0,0,0-.15,3.32l4.17,4.17A2.14,2.14,0,0,0,6.31,21a2.37,2.37,0,0,0,.66-.1l1.4,1.39-.56.56A2.47,2.47,0,0,0,8,26.36l1.07,1.07a2.83,2.83,0,0,0,1.16.7,2.79,2.79,0,0,0,.7,1.15L12,30.35a2.82,2.82,0,0,0,1.25.73A2.78,2.78,0,0,0,14,32.32L15,33.39a2.85,2.85,0,0,0,1.16.71,2.81,2.81,0,0,0,.7,1.15L18,36.31a2.73,2.73,0,0,0,1.91.82,2.2,2.2,0,0,0,1.57-.63l.26-.26,1.06,1c.77.72,1.64,1.78,2.72,2,1.58.33,2.7-.89,3.65-1.95A2.64,2.64,0,0,0,29.74,36a4.49,4.49,0,0,0,1.81-1.23,4.35,4.35,0,0,0,1.3-1.94,4.33,4.33,0,0,0,1.89-1.26A4.51,4.51,0,0,0,36,29.77a4.49,4.49,0,0,0,1.8-1.23c.85-.85,1.58-1.72,1.31-3a4.25,4.25,0,0,0-1.45-2.07l2.2-2.21a2.44,2.44,0,0,0,.25-.29,2.41,2.41,0,0,0,.56.07,2.13,2.13,0,0,0,1.52-.62l4.17-4.17A2.36,2.36,0,0,0,46.24,12.91ZM26.65,8.56a1.26,1.26,0,0,0,.43-.12l11,11L35.81,21.7l-9.31-9.31-.14-.12a1.28,1.28,0,0,0-1.21-.5l-2.08.31a1.28,1.28,0,0,0-1,.83l-1.17,3.22a1.28,1.28,0,0,0,.35,1.39l1.58,1.42.17.13-.81,1.28-.05,0-3.9-2.2L18.13,18a.67.67,0,0,1,0-.48v0c.95-3.28,2.35-7.18,3-7.89A26.13,26.13,0,0,1,26.65,8.56Zm-24,6.09,12-12,3.73,3.73-12,12Zm8.26,11,0,0L9.81,24.55l0,0,3.11-3.11,0,0L14,22.51l0,0Zm2.92,2.92,0,0-1.07-1.07,0,0,3.11-3.11,0,0,1.07,1.07,0,0Zm3,3,0,0-1.07-1.07,0,0,3.11-3.11,0,0L20,28.47l0,0Zm2.92,2.92,0,0L18.7,33.44l0,0,3.11-3.11,0,0,1.07,1.07,0,0Zm15.67-7.36a.22.22,0,0,1-.3,0h0c-.24-.26-.5-.51-.76-.76a1.28,1.28,0,0,0-1.81,1.81c.25.25.48.49.73.72h0a.2.2,0,0,1,0,.29l0,0h0l-.44.44-.53.53a.26.26,0,0,1-.31,0c-.24-.2-.51-.54-.73-.75a1.37,1.37,0,0,0-1.93,1.93c.22.22.62.56.78.76a.22.22,0,0,1,0,.29l-.45.45-.51.51h0a.3.3,0,0,1-.32,0c-.24-.2-.52-.55-.74-.76a1.27,1.27,0,0,0-2.09.48,1.17,1.17,0,0,0,.23,1.42l.76.76h0c.12.12,0,.28,0,.28h0l-.07.07-.93.93h0a.19.19,0,0,1-.25,0l-2.41-2.23,1.36-1.36a2.47,2.47,0,0,0-.19-3.48L23.5,28.52a2.83,2.83,0,0,0-1.16-.7,2.79,2.79,0,0,0-.7-1.15l-1.07-1.07a2.81,2.81,0,0,0-1.25-.73,2.77,2.77,0,0,0-.72-1.24l-1.07-1.07a2.84,2.84,0,0,0-1.16-.7,2.8,2.8,0,0,0-.7-1.15l-1.07-1.07a2.74,2.74,0,0,0-1.91-.82,2.2,2.2,0,0,0-1.57.63l-1.07,1.07L8.9,19.35l8.78-8.78c-.24.58-.5,1.27-.79,2.1-.69,2-1.23,3.84-1.3,4.07A3.08,3.08,0,0,0,16,19.59a2.52,2.52,0,0,0,.73.69l.05,0,3.93,2.22a2.54,2.54,0,0,0,1.33.37,2.55,2.55,0,0,0,2.21-1.27L25,20.48a2.61,2.61,0,0,0,.43-1.34A2.57,2.57,0,0,0,24.32,17l-.87-.78.62-1.7.7-.1,10,10h0l.91.91a1.29,1.29,0,0,0,.25.2l.46.46a.15.15,0,0,1,0,.23h0l-.45.45Zm5.17-8.8-12-12,3.73-3.73,12,12Z"/></svg>