<svg id="Icon" xmlns="http://www.w3.org/2000/svg" width="49" height="51.5" viewBox="0 0 49 51.5"><defs><style>.cls-1{fill:#bc9f7d;}</style></defs><title>cases-heart</title><path class="cls-1" d="M19.33,44.18h-17c-.11,0-.15,0-.15-.17V8.79s0-.07,0-.09.12,0,.09,0H7.89V10a1.76,1.76,0,0,0,1.76,1.76H22.81A1.76,1.76,0,0,0,24.56,10V8.65h5.56l.08,0c-.08,0,0,0,0,0s.06.08,0,0h0l0,.1s0,0,0,0V21.46a1.1,1.1,0,1,0,2.19,0V14.55c0-2.13.12-4.28,0-6.4A1.86,1.86,0,0,0,30.6,6.46h-6V5.14a1.32,1.32,0,0,0-1.32-1.32H21.36A5.23,5.23,0,0,0,16.19,0,5.23,5.23,0,0,0,11,3.82H9.65A1.76,1.76,0,0,0,7.89,5.58v.88H2.45A2.41,2.41,0,0,0,0,8.94V43.79a2.42,2.42,0,0,0,2.32,2.57c.48,0,1,0,1.43,0H19.33A1.1,1.1,0,0,0,19.33,44.18ZM16.21,1.54A3,3,0,0,1,19,3.39h-5.5A3,3,0,0,1,16.21,1.54ZM10.09,6H21.93V9.53H10.09ZM44.23,40.58a1.15,1.15,0,0,0-1.62.11,49.32,49.32,0,0,1-10,8.32c-2.71-1.73-14.07-9.41-14.07-16.94a7,7,0,0,1,6.29-7c2.57-.28,5.66,1,6.64,5.26a1.15,1.15,0,0,0,1.89.69h0a1.14,1.14,0,0,0,.36-.62c1-4.36,4.06-5.61,6.64-5.33a7,7,0,0,1,6.29,7,8.52,8.52,0,0,1-.39,2.46,1.15,1.15,0,1,0,2.19.66A10.82,10.82,0,0,0,49,32.07a9.06,9.06,0,0,0-2.58-6.46,9.48,9.48,0,0,0-5.75-2.81,8,8,0,0,0-8,4.1,8,8,0,0,0-8-4.1,9.48,9.48,0,0,0-5.75,2.81,9.07,9.07,0,0,0-2.58,6.45c0,9.81,15.12,18.89,15.77,19.27a1.14,1.14,0,0,0,.54.16h.06a1.14,1.14,0,0,0,.58-.16,51.54,51.54,0,0,0,11.1-9.15A1.15,1.15,0,0,0,44.23,40.58Zm2.92-3.42H37.42l-.88-1a1.06,1.06,0,0,0-2-.72l-1.36,2.9-1.38-5.42a1.1,1.1,0,0,0-1.06-.81,1.13,1.13,0,0,0-1.06.81l-1.65,4.27H26a1.1,1.1,0,0,0,0,2.19h2.84a1.13,1.13,0,0,0,1.06-.81l.69-1.78,1.29,5.06a1.1,1.1,0,0,0,2,.26l1.7-3.62.17.34a1.09,1.09,0,0,0,.95.54H47.15A1.1,1.1,0,0,0,47.15,37.16ZM24.71,15.67H7.7a1.1,1.1,0,0,0,0,2.19h17A1.1,1.1,0,0,0,24.71,15.67ZM13.06,24.88H7.44a1.1,1.1,0,0,0,0,2.19h5.62A1.1,1.1,0,0,0,13.06,24.88Zm0,9.21H7.44a1.1,1.1,0,0,0,0,2.19h5.62A1.1,1.1,0,0,0,13.06,34.09Z"/></svg>