<svg id="Layer_4" data-name="Layer 4" xmlns="http://www.w3.org/2000/svg" width="43" height="42.97" viewBox="0 0 43 42.97"><defs><style>.cls-1{fill:#bc9f7d;}</style></defs><title>cases-clock</title><path class="cls-1" d="M41.51,13.6A21.52,21.52,0,0,0,14.9,1,21.48,21.48,0,0,0,0,21.49a21.74,21.74,0,0,0,9.89,18.1A21.5,21.5,0,0,0,42.8,24.47,21.62,21.62,0,0,0,41.51,13.6ZM31.64,38.29A19.62,19.62,0,0,1,1.89,21.93c0-.15,0-.29,0-.44a19.62,19.62,0,0,1,29.4-17,19.62,19.62,0,0,1,.36,33.8Zm-11.11.41a1.05,1.05,0,0,0,2,0V35.36a1.05,1.05,0,0,0-2,0Zm2-34.4a1.05,1.05,0,0,0-2,0V7.64a1.05,1.05,0,0,0,2,0ZM4.26,20.81c-.93.09-.93,1.54,0,2H7.49c.93-.46.93-1.91,0-2Zm31.5,0c-1.08,0-1.08,1.65,0,2h2.88c1.08-.35,1.08-2,0-2ZM7.53,12.45a1,1,0,0,0-.67.28h0A.94.94,0,1,0,8.2,14.07h0a.94.94,0,0,0-.67-1.61Zm0,15.93a1,1,0,0,0-.67.28h0A.94.94,0,0,0,8.2,30h0a.94.94,0,0,0-.67-1.61Zm28.1,0h0a.94.94,0,0,0,0,1.89h0a.94.94,0,1,0,0-1.89ZM13.1,8.66h0a.94.94,0,0,0,0-1.89h0a.94.94,0,0,0,0,1.89ZM29.94,34.35a1,1,0,0,0,0,1.89A.95.95,0,0,0,29.94,34.35Zm0-25.69h0a.94.94,0,1,0,0-1.89h0a.94.94,0,0,0,0,1.89ZM13.6,34.47a.94.94,0,0,0-1.29.34l0,0a.94.94,0,0,0,1.63,1l0,0a.94.94,0,0,0-.34-1.29ZM35,14a.94.94,0,0,0,1.34-1.34h0A.94.94,0,0,0,35,14Zm-4.34-3.1-8.45,8.24-.92.89-7-4.53a.94.94,0,1,0-1,1.63l7.24,4.7,3.21,10.89L24.16,34a1,1,0,0,0,1.82-.5L22.67,22.26l-.22-.73,8-7.85L32,12.24C32.84,11.39,31.5,10.06,30.63,10.91Z"/></svg>