<svg xmlns="http://www.w3.org/2000/svg" viewBox="0 0 18 23.75">
  <defs>
    <style>
      .cls-1 {
        stroke: #000;
        stroke-miterlimit: 10;
        stroke-width: 0.5px;
      }
    </style>
  </defs>
  <title>icon-doc</title>
  <g id="Слой_2" data-name="Слой 2">
    <g id="Layer_3" data-name="Layer 3">
      <g>
        <path class="cls-1" d="M4.5,8.93H9.61a.5.5,0,0,0,0-1H4.5a.5.5,0,0,0,0,1Z"/>
        <path class="cls-1" d="M4.5,11.56H13a.5.5,0,0,0,.5-.5.51.51,0,0,0-.5-.5H4.5a.5.5,0,0,0-.5.5A.5.5,0,0,0,4.5,11.56Z"/>
        <path class="cls-1" d="M4.5,14.2H13a.51.51,0,0,0,.5-.5.5.5,0,0,0-.5-.5H4.5a.5.5,0,0,0-.5.5A.5.5,0,0,0,4.5,14.2Z"/>
        <path class="cls-1" d="M8.05,15.83H4.5a.5.5,0,0,0-.5.5.5.5,0,0,0,.5.5H8.05a.5.5,0,0,0,.5-.5A.5.5,0,0,0,8.05,15.83Z"/>
        <path class="cls-1" d="M17.25,1.25H13.87a1.61,1.61,0,0,0-1.49-1H5.63a1.61,1.61,0,0,0-1.5,1H.75a.5.5,0,0,0-.5.5V23a.5.5,0,0,0,.5.5h16.5a.5.5,0,0,0,.5-.5V1.75A.5.5,0,0,0,17.25,1.25Zm-11.62,0h6.75a.63.63,0,0,1,0,1.25H5.63a.63.63,0,1,1,0-1.25Zm-4.38,1h2.8A1.62,1.62,0,0,0,5.63,3.5h6.75A1.62,1.62,0,0,0,14,2.25h2.8v15H12a.5.5,0,0,0-.5.5V22.5H1.25ZM16,18.28l-3.51,3.51V18.28ZM13.23,22.5,16.75,19V22.5Z"/>
      </g>
    </g>
  </g>
</svg>
