<?xml version="1.0" standalone="no"?>
<!DOCTYPE svg PUBLIC "-//W3C//DTD SVG 20010904//EN"
 "http://www.w3.org/TR/2001/REC-SVG-20010904/DTD/svg10.dtd">
<svg version="1.0" xmlns="http://www.w3.org/2000/svg"
 width="512.000000pt" height="512.000000pt" viewBox="0 0 512.000000 512.000000"
 preserveAspectRatio="xMidYMid meet">
<metadata>
Created by potrace 1.11, written by Peter Selinger 2001-2013
</metadata>
<g transform="translate(0.000000,512.000000) scale(0.100000,-0.100000)"
fill="#000000" stroke="none">
<path d="M2350 5016 c-249 -72 -419 -294 -421 -551 -1 -92 19 -184 55 -254 39
-75 154 -62 176 19 8 29 6 48 -10 94 -39 108 -32 204 21 313 87 180 307 253
500 167 63 -28 143 -104 174 -165 46 -88 54 -205 21 -316 -22 -74 -12 -114 35
-138 101 -53 176 52 183 254 13 393 -359 686 -734 577z"/>
<path d="M2432 4594 c-49 -25 -75 -69 -80 -133 -3 -46 0 -62 20 -90 48 -71
130 -96 201 -62 109 54 123 201 25 274 -37 28 -122 33 -166 11z"/>
<path d="M3507 4476 c-165 -168 -353 -369 -364 -389 -8 -15 -12 -75 -13 -179
l0 -156 -44 -26 c-51 -30 -97 -79 -128 -139 -33 -60 -33 -202 0 -267 57 -116
163 -182 288 -182 136 1 251 85 298 220 20 56 14 164 -12 224 -26 60 -99 134
-158 159 -24 11 -44 26 -45 34 -1 21 -1 191 0 213 1 9 22 40 47 67 92 99 244
255 250 255 4 0 22 -17 42 -37 37 -40 267 -284 341 -362 77 -81 79 -90 86
-401 9 -404 8 -552 -3 -580 -6 -14 -46 -62 -90 -108 l-80 -83 -53 15 c-98 30
-189 14 -277 -46 -63 -44 -124 -147 -127 -215 0 -6 -3 -14 -6 -17 -3 -4 -95
-7 -205 -8 -183 -2 -203 0 -244 19 -44 20 -205 177 -618 602 l-139 143 23 42
c66 119 43 275 -55 372 -66 67 -121 88 -221 89 -71 0 -93 -4 -134 -25 -142
-72 -208 -217 -170 -368 38 -145 165 -237 321 -231 l73 3 388 -391 c337 -340
395 -395 447 -420 l60 -28 264 -2 263 -1 42 -40 c171 -166 443 -103 522 121
19 53 19 150 1 203 l-15 40 89 95 c153 161 151 152 144 659 -3 212 -8 407 -11
434 -13 106 -57 183 -176 308 -40 42 -129 136 -198 209 -249 264 -232 249
-284 249 -45 0 -50 -3 -119 -74z m-188 -902 c35 -23 49 -42 61 -85 14 -51 2
-96 -36 -135 -100 -100 -266 -10 -240 129 17 92 136 142 215 91z m-1243 -29
c45 -29 66 -74 61 -133 -6 -82 -64 -133 -148 -127 -54 3 -78 16 -107 59 -36
53 -31 135 11 174 57 54 127 64 183 27z m1786 -976 c78 -56 75 -181 -6 -234
-71 -47 -173 -18 -206 58 -32 71 -11 136 59 184 40 27 108 23 153 -8z"/>
<path d="M1451 4468 c-14 -5 -36 -22 -49 -38 -178 -215 -435 -541 -448 -569
-50 -105 -51 -119 -50 -597 l2 -449 27 -57 c33 -69 68 -111 142 -168 38 -29
55 -49 55 -65 0 -13 -67 -164 -149 -337 -81 -172 -154 -331 -160 -351 -25 -75
0 -176 57 -230 15 -14 88 -69 162 -122 74 -53 140 -106 146 -118 9 -18 7 -40
-13 -112 -35 -127 -35 -196 3 -264 18 -35 45 -66 73 -85 70 -49 82 -63 76 -94
-13 -68 -17 -89 -24 -122 -14 -68 8 -162 53 -224 21 -28 429 -332 488 -362 41
-21 133 -29 184 -15 35 9 132 67 379 226 28 18 158 101 290 185 132 84 259
165 282 181 l42 28 62 -32 c55 -28 71 -32 143 -32 98 1 155 23 218 87 68 69
93 128 93 223 0 67 -5 89 -27 135 -30 62 -48 84 -99 123 -117 88 -298 75 -403
-29 -70 -71 -91 -122 -91 -226 0 -51 -4 -89 -10 -92 -6 -2 -216 -135 -466
-295 -489 -312 -491 -313 -546 -268 -15 13 -84 63 -153 113 -69 49 -129 92
-135 97 -5 4 -31 24 -57 44 -27 19 -49 42 -49 49 -1 8 -2 20 -3 27 -1 6 4 41
12 77 34 162 -3 271 -113 335 -24 15 -47 35 -50 46 -4 10 5 61 19 113 58 210
30 270 -200 435 -83 59 -150 115 -152 125 -2 11 5 37 16 60 11 23 52 109 90
191 39 83 100 213 137 289 73 152 86 208 65 281 -16 56 -47 97 -126 163 -100
82 -95 56 -92 549 3 396 4 431 22 463 19 35 66 96 297 380 160 196 169 211
159 256 -8 34 -41 73 -64 75 -6 0 -18 2 -26 3 -8 2 -26 -1 -39 -6z m1844
-3388 c118 -73 82 -243 -55 -264 -44 -7 -111 24 -136 62 -26 39 -25 122 2 159
44 60 130 80 189 43z"/>
<path d="M2586 2149 c-64 -24 -107 -53 -139 -94 -67 -84 -89 -184 -63 -284 9
-34 16 -64 16 -66 0 -1 -63 -65 -139 -142 -76 -77 -146 -154 -155 -170 -29
-57 -37 -127 -42 -341 -4 -181 -2 -219 12 -247 28 -60 108 -69 155 -19 21 22
23 35 26 142 8 316 10 341 28 369 10 15 72 83 137 149 l119 121 42 -15 c159
-57 348 36 402 198 41 124 3 259 -96 344 -77 66 -211 90 -303 55z m156 -168
c98 -33 117 -182 31 -245 -40 -29 -120 -32 -161 -6 -41 26 -72 90 -66 139 6
46 51 101 94 116 40 13 52 13 102 -4z"/>
</g>
</svg>
