<svg xmlns="http://www.w3.org/2000/svg" viewBox="0 0 107.71 107.61">
  <defs>
    <style>
      .cls-1 {
        fill: #bc9f7d;
      }
    </style>
  </defs>
  <title>how-2</title>
  <g id="Слой_2" data-name="Слой 2">
    <g id="Isolation_Mode" data-name="Isolation Mode">
      <path class="cls-1" d="M12.55,40.74V35.82c0-.56,0-1.13,0-1.69,0,.14.06-.18.11-.38a3.75,3.75,0,0,0,.23-.43c.06,0,.25-.27.33-.35l.39-.24c.06,0,.32-.15.42-.2l.41-.13c.2-.06.41-.11.61-.15l.52-.09c.3,0,.61,0,.91,0h4.61c3,0,3-4.7,0-4.7-3.34,0-7-.4-10,1.34-2.39,1.38-3.25,3.81-3.25,6.43v5.55C7.85,43.77,12.55,43.77,12.55,40.74ZM107.7,87V34.9c0-3.28-1.7-6.27-5-7.26a17,17,0,0,0-4.67-.22H71.65c-3,0-3,4.7,0,4.7h29.63c.14.05.65.21.35.08a2,2,0,0,1,.9.7,3,3,0,0,1,.47,1.57v54a2.62,2.62,0,0,1-1,2.2c.13-.12-.15,0-.3.15a1.72,1.72,0,0,0-.39.11l-.24,0h-36c-3,0-3,4.7,0,4.7h6.46q1,3.42,2,6.84H66.23c-3,0-3,4.7,0,4.7H76.59a2.37,2.37,0,0,0,2.26-3c-.82-2.85-1.63-5.71-2.45-8.56h23.81c.39,0,.77,0,1.16,0a6.78,6.78,0,0,0,6-4.77A11.55,11.55,0,0,0,107.7,87ZM35.79,83.58a22.29,22.29,0,0,0,1-42.52c-9-3.21-19.25.23-25,7.73a22.28,22.28,0,0,0,24,34.79ZM12.87,56.73a17.59,17.59,0,0,1,29.35-6.82A17.59,17.59,0,0,1,33,79.43,17.78,17.78,0,0,1,21.18,77.6a16.63,16.63,0,0,1-4.71-3.74,18.86,18.86,0,0,1-3.06-4.8A17.72,17.72,0,0,1,12.87,56.73ZM48.4,90.12H17.85c-4.27,0-9.2-.64-12.93,1.87a11.24,11.24,0,0,0-4.86,8.6c-.12,1.57,0,3.17,0,4.75,0,3,4.7,3,4.7,0v-3.58a7,7,0,0,1,1.09-4.18,6.44,6.44,0,0,1,4.44-2.73c-.17,0,.56,0,.52,0H48.17a6.84,6.84,0,0,1,2.35.32,6.38,6.38,0,0,1,3.84,3.57,7.94,7.94,0,0,1,.46,3.35v3.28c0,3,4.7,3,4.7,0,0-3.2.2-6.27-1.21-9.24A11.09,11.09,0,0,0,48.4,90.12Zm8.94-38.6a13,13,0,1,0,13-13A13,13,0,0,0,57.34,51.52Zm13-8.28A8.28,8.28,0,1,1,62,51.52,8.3,8.3,0,0,1,70.32,43.24ZM67.57,78.65v7.91c0,3,4.7,3,4.7,0V78.65C72.27,75.62,67.57,75.62,67.57,78.65Zm0-5.9a2.35,2.35,0,1,0,4.7,0v-.56h8.12a2.27,2.27,0,0,1,2.28,2.27V86.15a2.35,2.35,0,1,0,4.7,0V74.46a7,7,0,0,0-7-7h-20a7,7,0,0,0-7,7V85a2.35,2.35,0,1,0,4.7,0V74.46a2.27,2.27,0,0,1,2.27-2.27h7.14ZM29.25,34.26H43.51a12.11,12.11,0,0,0,10.31,5.92,2.36,2.36,0,0,0,2.27-3c-.25-.65-.48-1.31-.71-2-.12-.32-.23-.65-.34-1h7.49a3.84,3.84,0,0,0,4.16-3.63c0-.35,0-.73,0-1.09V3.68A3.56,3.56,0,0,0,64.08.22a2.47,2.47,0,0,0-1-.21H29.31a3.68,3.68,0,0,0-3.77,3.62V30.56A3.69,3.69,0,0,0,29.25,34.26Zm1-29.55H62V29.56H54.77c-1.35,0-2.93-.25-4,.82s-1,2.61-.67,4.14l-.49-.27A7.67,7.67,0,0,1,47,30.72a2.31,2.31,0,0,0-2-1.16H30.24Zm16.6,22.91a.66.66,0,0,0,.24-.49V26.06a9.17,9.17,0,0,0,2.08-.38,4.93,4.93,0,0,0,1.67-.87,3.75,3.75,0,0,0,.79-.84,5.77,5.77,0,0,0,.61-1.09,6.39,6.39,0,0,0,.39-1.24,6.29,6.29,0,0,0,.14-1.29,3.7,3.7,0,0,0-.49-1.94A3.79,3.79,0,0,0,51,17.14a8,8,0,0,0-.83-.42,9.51,9.51,0,0,0-.95-.34,8.29,8.29,0,0,0-.89-.24l-1.24-.3c-1.24-.3-3.37-.85-3.37-.85l-.66-.15A2.54,2.54,0,0,1,42,14.26a1.16,1.16,0,0,1-.47-.87,4.69,4.69,0,0,1,.06-.74v0a2.32,2.32,0,0,1,.77-1.21,3.22,3.22,0,0,1,1.38-.69,12.62,12.62,0,0,1,3.37,0,2,2,0,0,1,1.26.77,3.12,3.12,0,0,1,.49,1.75.84.84,0,0,0,.24.49.77.77,0,0,0,.57.22h1.68c.38,0,.61-.09.68-.26a2.19,2.19,0,0,0,.13-.61,5.31,5.31,0,0,0-.44-2.37A3.87,3.87,0,0,0,50.35,9.1a7.06,7.06,0,0,0-1.54-.81,7.45,7.45,0,0,0-1.73-.44V6.67a.66.66,0,0,0-.24-.49A.84.84,0,0,0,46.25,6H44.52a.8.8,0,0,0-.58.23.68.68,0,0,0-.23.49V7.85a7,7,0,0,0-1.88.44,6.37,6.37,0,0,0-1.62.9A5.37,5.37,0,0,0,39,10.48a4.42,4.42,0,0,0-.69,1.61l0,0a3.28,3.28,0,0,0-.14.81c0,.25,0,.49,0,.73v.31a3,3,0,0,0,.46,1.69,4.32,4.32,0,0,0,1.25,1.19,7.21,7.21,0,0,0,1.77.81c.67.22,1.35.41,2.06.57,0,0,2.58.49,3.37.7.42.11.8.2,1.12.31a2.58,2.58,0,0,1,.78.38.93.93,0,0,1,.25.31,1.69,1.69,0,0,1,.12.36,1.31,1.31,0,0,1,0,.34c0,.11,0,.21,0,.28a1.55,1.55,0,0,1,0,.22,1.85,1.85,0,0,1,0,.23,2,2,0,0,1-.76,1.19,3.42,3.42,0,0,1-1.47.66,11.26,11.26,0,0,1-3.37,0,2.7,2.7,0,0,1-1.38-.66,2.25,2.25,0,0,1-.74-1.19c0-.15,0-.27,0-.37a2,2,0,0,1,0-.23v-.38a1.22,1.22,0,0,0-.08-.34.71.71,0,0,0-.76-.53H39c-.39,0-.62.09-.7.27a1.4,1.4,0,0,0-.11.6c0,.25,0,.5,0,.73a6.24,6.24,0,0,0,.16,1,3.5,3.5,0,0,0,.71,1.45,5.32,5.32,0,0,0,2,1.72,6.87,6.87,0,0,0,2.69.76v1.09a.68.68,0,0,0,.23.49.8.8,0,0,0,.58.23h1.73A.84.84,0,0,0,46.84,27.62Z"/>
    </g>
  </g>
</svg>
