<svg xmlns="http://www.w3.org/2000/svg" viewBox="0 0 76.4 107.9">
  <defs>
    <style>
      .cls-1 {
        fill: #bc9f7d;
      }
    </style>
  </defs>
  <title>how-4</title>
  <g id="Слой_2" data-name="Слой 2">
    <g id="Isolation_Mode" data-name="Isolation Mode">
      <path class="cls-1" d="M53.45,27.68A8.77,8.77,0,0,0,44.78,36c0,.11,0,.22,0,.33s0,.23,0,.34a8.68,8.68,0,1,0,8.67-9Zm0,12.67a4,4,0,1,1,4-4A4,4,0,0,1,53.45,40.35ZM55.8,64.91V56.1c0-3-4.7-3-4.7,0v8.81C51.1,68,55.8,68,55.8,64.91Zm1.75,5.94V103.2H55.41V77.94c0-3-4.7-3-4.7,0V103.2H48.57V70.85c0-3-4.7-3-4.7,0v34.7a2.37,2.37,0,0,0,2.35,2.35H59.9a2.37,2.37,0,0,0,2.35-2.35V70.85C62.25,67.82,57.55,67.82,57.55,70.85Zm18.51-9.31a107.17,107.17,0,0,0-9.73-12.33c-1.58-1.66-3.35-3.43-5.78-3.43H47.63c-.71,0-1.42,0-2.13,0a5.2,5.2,0,0,0-3.29,1.84,49.5,49.5,0,0,0-5.41,7l-.16.23-.48-1.48-1.35-4.17c-.14-.42-.27-.84-.41-1.26a1.8,1.8,0,0,1,0-.19V23.37a14.35,14.35,0,0,1,4,1.45c.38.21.75.44,1.12.68.12.08.6.44.67.48a5,5,0,0,1,.42.38,2.38,2.38,0,0,0,3.32,0l.39-.34c-.07.07.48-.36.61-.44.32-.23.66-.44,1-.65a12,12,0,0,1,5.81-1.8,13.92,13.92,0,0,1,6,1.29,16.12,16.12,0,0,1,1.94,1.1l.51.36a2.28,2.28,0,0,0,1.53.58,2.16,2.16,0,0,0,.51-.06,2.31,2.31,0,0,0,1.15-.63,1.29,1.29,0,0,0,.16-.17A2.16,2.16,0,0,0,64,24.11v-.06c0-.1,0-.2,0-.31-.27-4-2.31-7.59-4.81-10.69A35.58,35.58,0,0,0,48.09,4.22,35.66,35.66,0,0,0,33.2,0,33.7,33.7,0,0,0,18.06,3.2,37.48,37.48,0,0,0,5.48,12.27C2.56,15.51.05,19.62,0,24.11a2.37,2.37,0,0,0,4,1.66l.15-.12,0,0h0a13.9,13.9,0,0,1,1.88-1.15,11.35,11.35,0,0,1,2.43-.91,13.13,13.13,0,0,1,3.65-.43,12.37,12.37,0,0,1,5.79,1.69c.35.19.69.41,1,.63l.74.52q.22.18.45.39a2.36,2.36,0,0,0,3.32,0A7.4,7.4,0,0,1,24,25.8l.27-.23.1-.08a9.68,9.68,0,0,1,1-.67A8.71,8.71,0,0,1,28,23.68a11.13,11.13,0,0,1,1.69-.4V44.93a13.74,13.74,0,0,0,.12,4q1.93,6,3.88,11.93a2.37,2.37,0,0,0,4.29.57q1.26-2,2.6-3.93c.78-1.16,1.58-2.29,2.41-3.41.16-.22.32-.43.49-.64s.19-.25.21-.29l.36-.43c.39-.49.79-1,1.21-1.42.26-.28.54-.54.82-.79.59,0,1.17,0,1.76,0h3.32a2.35,2.35,0,0,0,4.66,0h4.93l.42.28a2.75,2.75,0,0,1,.26.22,20.21,20.21,0,0,1,1.49,1.43C64,53.52,65,54.7,65.94,55.9c.52.63,1,1.26,1.53,1.91l.38.47a2.16,2.16,0,0,0,.16.22l.77,1Q70,61,71.09,62.62l-7.36,8.91a2.39,2.39,0,0,0,0,3.32,2.35,2.35,0,0,0,3.32,0q4.32-5.23,8.65-10.46A2.38,2.38,0,0,0,76.06,61.54ZM31.71,18.43a16.62,16.62,0,0,0-10,3.15A18.05,18.05,0,0,0,6.15,19.3,20.35,20.35,0,0,1,9,15.4a34,34,0,0,1,11.19-8A28.61,28.61,0,0,1,34.1,4.79,31.23,31.23,0,0,1,47.51,9.28,31.16,31.16,0,0,1,56,16.57c.26.33.82,1.13,1.2,1.73.23.37.45.75.66,1.13a18.54,18.54,0,0,0-6.19-1,17.07,17.07,0,0,0-9.46,3.23A18.72,18.72,0,0,0,31.71,18.43Zm2.62,29.25c0-.19,0-.23,0,0Zm11.75,2.75,0,0S46.17,50.42,46.08,50.43Zm.17-.11c.15-.08.33-.13,0,0Zm14.31.1h0Zm.41.06c.15,0,.26,0,0,0Z"/>
    </g>
  </g>
</svg>
