<svg xmlns="http://www.w3.org/2000/svg" viewBox="0 0 107.84 73.35">
  <defs>
    <style>
      .cls-1 {
        fill: #bc9f7d;
      }
    </style>
  </defs>
  <title>how-1</title>
  <g id="Слой_2" data-name="Слой 2">
    <g id="Icon">
      <path class="cls-1" d="M105.48,60.92h-4.77V4.47a4.46,4.46,0,0,0-3-4.25A8.28,8.28,0,0,0,95.11,0H11.54A4.44,4.44,0,0,0,7.15,4.39V60.92H2.38A2.37,2.37,0,0,0,0,63.27a20.12,20.12,0,0,0,.11,3.64c.31,1.72,1.95,3.46,3.15,4.62a5.54,5.54,0,0,0,4,1.76H97.22c2,0,4.57.41,6.28-.87s3.68-3.32,4.21-5.52a2.49,2.49,0,0,0,.12-.8,1,1,0,0,0,0-.25V63.27A2.37,2.37,0,0,0,105.48,60.92ZM11.86,4.85a.66.66,0,0,1,0-.14H96V60.92H11.86ZM4.7,65.74a.68.68,0,0,1,0-.12h0s0,0,0,.13Zm2,2.84c-.1,0-.09,0,.07,0Zm94.44,0H101C101.17,68.57,101.26,68.58,101.15,68.58Zm2-2.78a.59.59,0,0,0,0,.08,10.18,10.18,0,0,1-.63,1l-.07.09-.1.13c-.14.17-.29.34-.44.5a9.23,9.23,0,0,1-.89.88l-.17.12h-44a2.37,2.37,0,0,0-2.28-1.77H52.94a2.39,2.39,0,0,0-2.28,1.77H7.06l-.15-.11a10.24,10.24,0,0,1-.75-.72c-.15-.17-.3-.33-.44-.5L5.48,67l-.07-.1a7.85,7.85,0,0,1-.64-1l0-.1v-.16h98.41Zm0-.07c0-.16,0-.11,0,0ZM56.48,8H51c-3,0-3,4.71,0,4.71h5.52C59.52,12.71,59.52,8,56.48,8ZM40.7,38a10.84,10.84,0,0,0,3.7-4.26A11,11,0,0,0,27.31,20.62a10.92,10.92,0,0,0-3.77,8c0,.1,0,.2,0,.3a2.81,2.81,0,0,0,0,.29A11.24,11.24,0,0,0,28.32,38a16.54,16.54,0,0,0-3,1.12,11.6,11.6,0,0,0-6,8,29.51,29.51,0,0,0-.63,6.83c0,3,4.7,3,4.71,0,0-.84,0-1.68.06-2.52,0-.41,0-.81.09-1.21,0-.13,0-.25,0-.37s.07-.47.09-.55a14.19,14.19,0,0,1,.53-2.16c0-.17.12-.34.18-.51v0l0-.06a7.38,7.38,0,0,1,.58-1.07c.09-.15.19-.29.28-.43l.07-.08a8.85,8.85,0,0,1,.74-.76l.24-.2a2.33,2.33,0,0,0,.3-.22,10.81,10.81,0,0,1,1.2-.67L28,43l.09,0,.62-.22a13,13,0,0,1,1.36-.37A15.29,15.29,0,0,1,33.25,42a20.18,20.18,0,0,1,6.63.62c.37.11.74.24,1.11.38-.16-.06.28.14.33.16l.53.28a8.22,8.22,0,0,0,.73.46,9.58,9.58,0,0,1,.8.76l.18.2.22.28a8.77,8.77,0,0,1,.54.89c.08.15.16.31.23.47l0,0,0,.05a10.49,10.49,0,0,1,.39,1.2c.1.36.18.73.25,1.09,0,.14.14.86.15.87.1.82.15,1.64.18,2.47,0,.56,0,1.13,0,1.69,0,3,4.71,3,4.71,0,0-3.5-.27-7.1-1.91-10.26A11.73,11.73,0,0,0,40.7,38Zm-6.19-2.77a6.28,6.28,0,1,1,6.28-6.28A6.32,6.32,0,0,1,34.51,35.18Zm34.91-21c-4.81.51-9.67,2.44-12.92,6.14-3,3.36-4.35,8.56-2.55,12.83a10.53,10.53,0,0,0,.9,1.73l.19.26-.1.13,0,.07-.33.41c-.24.3-.48.58-.73.87-.59.71-1.17,1.43-1.73,2.17-1,1.36-1.72,3.31-.3,4.71,1.21,1.19,3,.69,4.38.31s3.14-.92,4.7-1.39l2.1-.6.82-.2.62.25c.63.22,1.28.39,1.93.55a24.29,24.29,0,0,0,4.8.63A23.06,23.06,0,0,0,79,41.93c5.91-1.86,11.3-6.63,11.54-13.15,0-.09,0-.18,0-.28C90.39,18,78.37,13.18,69.42,14.13ZM55.64,42l0-.08C55.66,42,55.65,42,55.64,42ZM85.42,30.82s-.16.41-.15.43l-.24.49a12.45,12.45,0,0,1-.81,1.31,3.07,3.07,0,0,0-.29.36c-.16.19-.33.36-.5.54a13,13,0,0,1-1.09,1,11,11,0,0,1-1,.7,17.28,17.28,0,0,1-1.62.92,18.82,18.82,0,0,1-14.38.59,6.44,6.44,0,0,0-4.11.19l-2.58.76a8.7,8.7,0,0,0,1-1.58,3.31,3.31,0,0,0,.09-3,7.54,7.54,0,0,0-.84-1.06,4,4,0,0,1-.69-1.31,7.8,7.8,0,0,1-.28-2.87c0-.2,0-.39,0-.59,0,.26.06-.35.07-.39a9.85,9.85,0,0,1,.4-1.41,3.09,3.09,0,0,0,.18-.41c.1-.21.22-.41.33-.61s.25-.4.38-.6c0,0,.33-.46.26-.38a14.7,14.7,0,0,1,1.95-1.94,17.58,17.58,0,0,1,12.77-3.11,17.4,17.4,0,0,1,6.38,2.1,11.14,11.14,0,0,1,2.21,1.61,12.88,12.88,0,0,1,1,1.06,5.76,5.76,0,0,1,.75,1.06,7.13,7.13,0,0,1,1.14,3.84A6,6,0,0,1,85.42,30.82Z"/>
    </g>
  </g>
</svg>
