<svg id="Icon" xmlns="http://www.w3.org/2000/svg" width="29" height="31.98" viewBox="0 0 29 31.98"><defs><style>.cls-1{fill:#fff;}</style></defs><title>airplane</title><path class="cls-1" d="M29,18A12.8,12.8,0,0,0,17.13,5.22a6.06,6.06,0,0,0,.47-.41,9,9,0,0,0,.95-1.13,1.38,1.38,0,0,0,.33-1.33.6.6,0,0,0-.15-.22A4,4,0,0,0,15,1.25a6.46,6.46,0,0,0-2.16,1.4l-2,1.6-2.87-2L6,.82,5.36.4,5.24.32c.19.13-.09-.1-.13-.12A1.43,1.43,0,0,0,4.4,0c-.54,0-1,.42-1.34.73a2.87,2.87,0,0,0-.9.9,1.32,1.32,0,0,0,.27,1.5l.47.46L6.63,7.22l.3.3L4.38,9.61l-1.16-1L3,8.46a1.9,1.9,0,0,0-1.1-.56,1.46,1.46,0,0,0-.77.25l-.57.26a1.23,1.23,0,0,0-.58,1,1.39,1.39,0,0,0,.35,1L.89,11l.75.92A14.35,14.35,0,0,0,.51,16.27,14.3,14.3,0,0,0,13.32,31.91Q14,32,14.76,32A14.3,14.3,0,0,0,29,19.1h0C29,18.73,29,18.36,29,18ZM4.93,19a11.42,11.42,0,0,1,.39-4.13,2.56,2.56,0,0,0,.56-.38L10,11.12h0l1.45,2.26a3.47,3.47,0,0,0-1.11.87c-.77,1-1.65,3.7-.58,5.43a2.28,2.28,0,0,0,2.81.74,4.38,4.38,0,0,1,.51-.11,3.39,3.39,0,0,1,.7,1.21,2,2,0,0,0,.72.94l.18.15c0,.08-.09.2-.13.29A2.53,2.53,0,0,0,14.29,25l.1.23c.4,1,1,2.26,2.21,2.26A3.16,3.16,0,0,0,19.36,26a3.94,3.94,0,0,0,.29-1,5.12,5.12,0,0,1,.13-.54,2.43,2.43,0,0,1,.48-.24c.47-.2,1.17-.5,1.23-1.26a1.17,1.17,0,0,0-.43-1.1l0,0v-.07a5.76,5.76,0,0,1,.8-.9c.77-.76,1.56-1.54,1.45-2.45a1.31,1.31,0,0,0-.81-1.13,2.25,2.25,0,0,0-1-.1,2.06,2.06,0,0,1-.36,0l0,0h0a2.57,2.57,0,0,0-.13-.65,1.28,1.28,0,0,0-.46-.64c.32-.07.73-.12,1-.16a5.24,5.24,0,0,0,2.08-.53A7.58,7.58,0,0,0,26,12.48c0-.09.05-.18.08-.28A11.4,11.4,0,1,1,4.93,19Zm-.15-5.41s.06.07,0,0Zm20-3.1A6.49,6.49,0,0,1,24.63,12a6.53,6.53,0,0,1-1.85,2,5.64,5.64,0,0,1-1.49.31c-1.18.15-2.29.29-2.52,1.15a1.12,1.12,0,0,0,.7,1.43l.12.06a1.22,1.22,0,0,1,.05.3,1.27,1.27,0,0,0,.7,1.11,1.91,1.91,0,0,0,1.15.2h.32v0s0,.13-.25.44a9.65,9.65,0,0,1-.79.84c-.69.68-1.28,1.26-1.22,2a1.46,1.46,0,0,0,.4,1l-.31.14a1.92,1.92,0,0,0-1.25,1.09,6.62,6.62,0,0,0-.17.71,2.56,2.56,0,0,1-.2.67,1.89,1.89,0,0,1-1.49.65c-.33,0-.69-.84-.92-1.4l-.1-.24c-.11-.25,0-.57.23-1A1.68,1.68,0,0,0,16,22.21a1.85,1.85,0,0,0-.67-.84c-.13-.11-.25-.2-.27-.28a4.93,4.93,0,0,0-1-1.75c-.5-.63-1.29-.42-1.87-.28-.85.22-1.08.2-1.27-.12-.66-1.06-.08-3.12.49-3.83a2.32,2.32,0,0,1,.78-.55L13,15.89l.35.55a1.32,1.32,0,0,0,1.4.61,3.15,3.15,0,0,0,1.16-.77,2.61,2.61,0,0,0,.84-.89l.49,0A2.42,2.42,0,0,0,19.15,14,2.78,2.78,0,0,0,19,11.29a2,2,0,0,0-1.9-.88h-.28a1.2,1.2,0,0,1,0-.2c0-.2.43-.79,2.07-1.55a20.3,20.3,0,0,1,2.36-.89A11.47,11.47,0,0,1,24.78,10.48Zm-10.38,5.2h0Zm.12,0s.06.09,0,0Zm.89-9.12.79,0a11.38,11.38,0,0,1,3,.41c-.29.12-.6.25-.91.39-2,.9-2.9,1.82-2.9,2.82a1.44,1.44,0,0,0,1.68,1.6c.47,0,.6,0,.73.23a1.37,1.37,0,0,1,.07,1.33,1,1,0,0,1-.82.6,3.64,3.64,0,0,1-.53,0c-.1-.21-.2-.42-.28-.6L14.21,8.55l-.3-.71Zm0,8.21ZM4.36,1.39Zm-1,.85s-.06.06,0,0Zm-2,7.3.45-.21h0L2,9.45l1.69,1.44.15.13a.72.72,0,0,0,1,0L8.48,8a.7.7,0,0,0,0-1L5.6,4.27,3.83,2.56,3.46,2.2l.13-.11.81-.66.13.1.1.07L6.16,2.65,10.3,5.51l.31.21a.71.71,0,0,0,.85-.11l2.17-1.78a8.16,8.16,0,0,1,1.61-1.18A2.14,2.14,0,0,1,17,2.7l.11,0,.19.1.08,0L17.34,3l-.08.11-.08.1a5.2,5.2,0,0,1-.71.77l-1,.85L12.58,7.14a.71.71,0,0,0-.11.85L14,11.6,15,14l.3.7.06.15v0c-.25.23-.54.44-.8.66l-.13.11-.79-1.22-2.75-4.29-.25-.39a.71.71,0,0,0-1.1-.14L6.35,12.24l-1.6,1.31h0l-.64-.79L1.47,9.56Zm.45,6.87a12.93,12.93,0,0,1,.75-3.22l1,1.17a2.28,2.28,0,0,0,.25.26A12.86,12.86,0,0,0,3.4,18,12.81,12.81,0,0,0,13.77,30.55l-.31,0A12.92,12.92,0,0,1,1.9,16.41Z"/></svg>