<svg id="Icon" xmlns="http://www.w3.org/2000/svg" width="30" height="26.77" viewBox="0 0 30 26.77"><defs><style>.cls-1{fill:#fff;}</style></defs><title>certificat</title><path class="cls-1" d="M28.59,0H1.53A1.45,1.45,0,0,0,.08.9,2.29,2.29,0,0,0,0,1.73V21a1.37,1.37,0,0,0,1.25,1.36H16.86l-.95,2a.68.68,0,0,0,0,.66.65.65,0,0,0,.74.3l1.72-.66.82,1.78a.64.64,0,0,0,.57.32.67.67,0,0,0,.63-.48L21.2,24,22,26.29a.68.68,0,0,0,.46.46.65.65,0,0,0,.74-.3L24,24.67l1.72.66a.64.64,0,0,0,.64-.17.67.67,0,0,0,.1-.79l-.95-2H28.7A1.37,1.37,0,0,0,30,21V1.37A1.38,1.38,0,0,0,28.59,0Zm-8,21.91-.88,2.45-.4-.87a.65.65,0,0,0-.74-.3l-.77.29,1.14-2.41a4.81,4.81,0,0,0,1.87.48A.7.7,0,0,0,20.54,21.91Zm-.7-1.86a3.46,3.46,0,1,1,4.56-2.7,3.45,3.45,0,0,1-.68,1.55,4.57,4.57,0,0,1-.67.66,3.51,3.51,0,0,1-1,.51A3.43,3.43,0,0,1,19.84,20.05Zm4,3.13a.65.65,0,0,0-.74.3l-.4.87-.88-2.45a.7.7,0,0,0-.26-.4,4.83,4.83,0,0,0,1.83-.62l1.23,2.58Zm4.8-2.25v0h0l-.05,0c.08,0-.1,0,0,0H24.9l-.46-.94.26-.31a4.87,4.87,0,0,0,1-3.82,4.77,4.77,0,1,0-7.94,4.34l.06.05c-.11.23-.22.46-.33.66H1.4s-.1,0,0,.27h0c0-.25,0-.25,0-.26h0V1.4h0l0,0s.08,0,0,0H28.61c-.09,0,.08.07,0,0l0,0V20.94S28.63,21,28.64,20.93ZM26,4.64H3.64A.68.68,0,0,0,3.64,6H26A.68.68,0,0,0,26,4.64Zm0,4.64H3.64a.68.68,0,0,0,0,1.36H26A.68.68,0,0,0,26,9.27ZM13.23,12.54H3.45a.68.68,0,0,0,0,1.36h9.78A.68.68,0,0,0,13.23,12.54Zm7.84,1.32a3,3,0,0,0-3,3,.65.65,0,0,0,1.31,0,1.66,1.66,0,0,1,1.64-1.64A.65.65,0,0,0,21.07,13.87Z"/></svg>