<svg id="Icon" xmlns="http://www.w3.org/2000/svg" width="27" height="27.13" viewBox="0 0 27 27.13"><defs><style>.cls-1{fill:#fff;}</style></defs><title>column</title><path class="cls-1" d="M26.49,2.08A4,4,0,0,0,23.07,0c-.67,0-1.35,0-2,0H6C5.31,0,4.63,0,4,0A4,4,0,0,0,.54,2,5.63,5.63,0,0,0,0,4.9,4.39,4.39,0,0,0,.33,6.52,4,4,0,0,0,1.38,8a3.66,3.66,0,0,0,3.49.78,3.51,3.51,0,0,0,.65-.27V21.33c-.07,0-.07.08-.06.1h0a1.23,1.23,0,0,0-1.13.91,4.38,4.38,0,0,0,0,.91h0a1.19,1.19,0,0,0-1.18,1.17c0,.28,0,.56,0,.84a6,6,0,0,0,0,1,1.18,1.18,0,0,0,1.15.89h19a1.21,1.21,0,0,0,1-.58,1.42,1.42,0,0,0,.16-.8V24.43a.66.66,0,0,0,0-.13,1.23,1.23,0,0,0-1.3-1h-.24a2.19,2.19,0,0,0-.14-1.08,1.18,1.18,0,0,0-1-.63v-13l.37.15A3.65,3.65,0,0,0,25.57,8,4,4,0,0,0,27,4.94,5.88,5.88,0,0,0,26.49,2.08ZM13.71,5.48h5.83a3.19,3.19,0,0,0,.11.54l0,.15H7.21l0-.09a2.9,2.9,0,0,0,.14-.59Zm6.85,8.47v7.37s0,.08,0,.12h-2.5V9.56a.57.57,0,1,0-1.14,0V21.44H14.18V9.56a.57.57,0,1,0-1.14,0V21.44H10.3V9.56a.57.57,0,1,0-1.14,0V21.44H6.65s0,0,0,0V7.59a.66.66,0,0,0,0-.07l.15,0H20.44l.11.13ZM5.45,22.63h0l0,0Zm.07.2v-.18c-.05,0,0,0,0-.07H21.65c0,.08,0,.1,0,.06,0,.17,0,.35,0,.39H5.52Zm16.13-.21h0S21.63,22.61,21.65,22.62ZM4,25.88H4Zm0-1.5v0H4Zm0,1.5Zm0,0H4l0,0ZM23,24.4h0s0,0,0,0,0,0,0,0h0V26h0s0,0,0,0H3.92s0,0,0,0V24.41H23Zm-1.35-1.82h0ZM25.51,4.29c0,.09,0,.17,0,.26s0,.55,0,.71a2.77,2.77,0,0,1-1.87,2.15,2.28,2.28,0,0,1-1.45,0,2.63,2.63,0,0,1-.6-.31,2.77,2.77,0,0,1-.53-.5A2.23,2.23,0,0,1,20.86,4a1.84,1.84,0,0,1,.57-.51l.19-.1.14,0L22,3.27h.12a1.5,1.5,0,0,1,1.32.7,1.23,1.23,0,0,1,.13.66s0,.14,0,.16,0,.12,0,.19a1.22,1.22,0,0,1-.16.38l-.06.08,0,0-.08.07h0l-.11.06-.11,0-.08,0h-.15a.58.58,0,0,0-.58.58.59.59,0,0,0,.58.58A1.89,1.89,0,0,0,24.6,5.32a2.45,2.45,0,0,0-1.1-2.87,2.7,2.7,0,0,0-3.15.37,2.79,2.79,0,0,0-.9,1.52h-12A3,3,0,0,0,6.6,2.86a2.71,2.71,0,0,0-3.14-.44A2.44,2.44,0,0,0,2.29,5.27,1.9,1.9,0,0,0,4.18,6.81h0a.59.59,0,0,0,.58-.58.58.58,0,0,0-.58-.58H4l-.1,0-.07,0-.11-.07h0l0,0-.08-.08-.09-.14s-.08-.19-.05-.11a1.5,1.5,0,0,1-.13-.61c0-.06,0-.11,0-.17V4.33A1.72,1.72,0,0,1,3.44,4s0-.08,0-.09l.09-.14,0,0,0,0,.17-.17a2,2,0,0,1,.55-.28l.16,0h.39a1.57,1.57,0,0,1,.39.11,2,2,0,0,1,.66.48,1,1,0,0,1,.16.22l.09.16.05.11a1.86,1.86,0,0,1,.14.72A2.43,2.43,0,0,1,3.57,7.47a2.52,2.52,0,0,1-1.3-.68,2.75,2.75,0,0,1-.69-1,2.85,2.85,0,0,1-.17-.92V4.42A4,4,0,0,1,1.58,3c0-.09.06-.17.09-.26l0-.09.07-.13.14-.24L2,2.2l0,0,0,0a2.87,2.87,0,0,1,.35-.36l0,0,.06,0,.23-.14.2-.1.09,0a3.67,3.67,0,0,1,.42-.14L3.8,1.2H4l.47,0H20.81c.66,0,1.33,0,2,0H23l.33.06.38.11.14.05.18.08a3.13,3.13,0,0,1,.39.24l0,0,.08.06.21.2.13.15.13.19c.05.08.1.16.14.25l.06.13h0l0,.1A4.05,4.05,0,0,1,25.51,4.29Z"/></svg>