<svg id="Icon" xmlns="http://www.w3.org/2000/svg" width="26" height="31.51" viewBox="0 0 26 31.51"><defs><style>.cls-1{fill:#fff;}</style></defs><title>cup</title><path class="cls-1" d="M24.35,10.29C25.82,7.33,26,3.94,26,.7A.69.69,0,0,0,25.31,0H22.93a.7.7,0,0,0-.71.67.57.57,0,0,1,0,.07l0,.13a2.76,2.76,0,0,1-.12.36L22,1.35l-.15.27-.17.24,0,0-.14.16-.28.28-.16.14L21,2.54l0,0-.39.26q0-.76,0-1.52A.69.69,0,0,0,20,.62H6a.69.69,0,0,0-.69.68q0,.78,0,1.57l-.21-.14-.13-.09L5,2.57l-.23-.19a4.44,4.44,0,0,1-.44-.45l0,0,0,0-.14-.21a3.3,3.3,0,0,1-.2-.37l0,0-.05-.16A2.4,2.4,0,0,1,3.75.79h0s0,0,0-.06A.7.7,0,0,0,2.91.05H1a.71.71,0,0,0-.8.18A.64.64,0,0,0,0,.7c0,3.41.22,7,1.93,10.06a9.91,9.91,0,0,0,4.07,4,11.63,11.63,0,0,0,2,.8l-.25.19a.69.69,0,1,0,.83,1.09l.06,0q.23.49.49,1a10.7,10.7,0,0,0,1.29,2,.69.69,0,0,0-.62.87.71.71,0,0,0,.69.5h.14a9.62,9.62,0,0,1-.74.95,11.14,11.14,0,0,1-.85.85l-.42.36-.21.16,0,0-.13.1a11,11,0,0,1-1.34.85l-.42.21-.12.05,0,0a.69.69,0,0,0-.44.63v1.07H3.31v5.24H22.69V26.28H20.07V25.21a.7.7,0,0,0-.47-.65h0l-.4-.19a11.1,11.1,0,0,1-1.38-.84A11.42,11.42,0,0,1,16.15,22a8.9,8.9,0,0,1-.8-1h.2a.71.71,0,0,0,.69-.5.69.69,0,0,0-.63-.86,9.75,9.75,0,0,0,.62-.83,14.4,14.4,0,0,0,1.16-2.11l.06,0a.69.69,0,1,0,.82-1.1l-.23-.18a11.46,11.46,0,0,0,2.52-1.09A9.87,9.87,0,0,0,24.35,10.29ZM7.48,14l-.1,0-.14-.06c-.24-.11-.48-.23-.71-.36s-.41-.24-.6-.36l-.28-.19-.14-.1-.08-.06h0a8.84,8.84,0,0,1-1-.93c-.15-.16-.28-.32-.42-.48l-.05-.07-.06-.09-.21-.3A10.17,10.17,0,0,1,3,9.79c-.09-.19-.18-.38-.27-.57l0-.07,0-.1-.13-.34a14.73,14.73,0,0,1-.57-2c-.07-.34-.14-.68-.19-1l0-.26,0-.1v0q0-.28-.07-.56c-.12-1.08-.16-2.17-.17-3.26H2.55a4,4,0,0,0,.38.86A5.79,5.79,0,0,0,5.57,4.57a44,44,0,0,0,.91,5.66c.28,1.26.62,2.52,1,3.75ZM21.12,27.85V30.2H4.62V27.85Zm-4.3-3.2a10.23,10.23,0,0,0,1.68,1v.59H7.24v-.6a10.46,10.46,0,0,0,1.63-1A11.79,11.79,0,0,0,12.09,21h1.51A11.7,11.7,0,0,0,16.82,24.65Zm-1.24-7.34q-.22.41-.48.8l-.26.38-.09.13-.1.12a5.57,5.57,0,0,1-.53.57l-.13.12,0,0-.27.18-.06,0,0,0h0l0,0H12.43a.74.74,0,0,0-.16-.13l-.2-.14h0l-.1-.08a4.89,4.89,0,0,1-.43-.43l-.2-.23-.06-.07-.07-.09c-.15-.2-.29-.41-.42-.62a17.67,17.67,0,0,1-1.47-3A39.46,39.46,0,0,1,7.17,6.58a36.34,36.34,0,0,1-.41-4.65H19.24a39.68,39.68,0,0,1-1.05,8A28.53,28.53,0,0,1,15.58,17.31Zm3.1-3.39h0l0,0-.14.05A40.78,40.78,0,0,0,20,7.69c.17-1,.32-2.1.41-3.16l.4-.2a5.44,5.44,0,0,0,2.3-2.2,4.14,4.14,0,0,0,.28-.67h1.11c0,.58,0,1.16,0,1.74q0,.64-.09,1.28,0,.31-.06.62l0,.27v.07l0,.21a16.7,16.7,0,0,1-.58,2.56c-.06.2-.13.4-.2.59l-.11.29,0,.08-.06.14a10.67,10.67,0,0,1-.6,1.16c-.11.18-.22.36-.34.53l-.18.26,0,.06-.11.13a8.84,8.84,0,0,1-.93,1l-.25.22-.13.11-.07.05c-.19.14-.38.28-.58.4A9.73,9.73,0,0,1,18.68,13.92Zm-7.38,0a.69.69,0,0,0,0,1.37A.69.69,0,0,0,11.3,13.87Zm-.08-1.59a23.78,23.78,0,0,1-1.45-8,.69.69,0,0,0-1.37,0,24.93,24.93,0,0,0,1.5,8.32.7.7,0,0,0,.84.48A.69.69,0,0,0,11.21,12.28Z"/></svg>