<svg id="Icon" xmlns="http://www.w3.org/2000/svg" width="31" height="33.09" viewBox="0 0 31 33.09"><defs><style>.cls-1{fill:#fff;}</style></defs><title>extra</title><path class="cls-1" d="M28.94,21.81l-.34-.11V13.28a3.11,3.11,0,0,0,.34-5.95,3.08,3.08,0,0,0-3.32.81L19.41,4.56l-1-.58,0-.1A3.11,3.11,0,1,0,12.31,3a.83.83,0,0,0,0,.09.86.86,0,0,0,0,.09,3.19,3.19,0,0,0,.15.84L8,6.64,5.36,8.15a3.41,3.41,0,0,0-1.2-.82A3.13,3.13,0,0,0,.35,8.82,3.17,3.17,0,0,0,0,10.16a.84.84,0,0,0,0,.09.85.85,0,0,0,0,.09A3.14,3.14,0,0,0,2.4,13.27V21.7a3.23,3.23,0,0,0-2,1.59A3.17,3.17,0,0,0,0,24.64a.83.83,0,0,0,0,.09.86.86,0,0,0,0,.09,3.14,3.14,0,0,0,2.78,3,3.08,3.08,0,0,0,2.67-1.06l1,.59v5a.71.71,0,1,0,1.43,0v-6a2.26,2.26,0,0,1,2.25-2.25H13v.95a1.33,1.33,0,0,0,1.31,1.35h2.09a1.33,1.33,0,0,0,1.31-1.35v-.94h2.8a2.26,2.26,0,0,1,2.25,2.25h0l.07,6a.71.71,0,0,0,.71.7h0a.71.71,0,0,0,.7-.72l-.06-4.84.43-.25.85-.49a3.1,3.1,0,1,0,3.39-4.95Zm-1-13.24a1.68,1.68,0,1,1-1.68,1.68A1.69,1.69,0,0,1,27.89,8.57Zm-.71,4.7V21.7l-.19.05L25.5,19.19l-1-1.7.35-.6L27,13.22Zm-1.41-.77-1.49,2.57-.58,1-1-1.64a7.41,7.41,0,0,0-.27-2,7.05,7.05,0,0,0-.51-1.3h3A3.14,3.14,0,0,0,25.76,12.5ZM17.7,5.22,22.3,7.87l2.6,1.5a3.23,3.23,0,0,0-.08.34H21A7.57,7.57,0,0,0,19.07,8.1L17.51,5.41Zm2.38,5.61a6,6,0,0,1,.18,7.06,6.07,6.07,0,0,1-2.78,2.17,6,6,0,1,1-.3-11.25A6,6,0,0,1,20.08,10.83Zm-6-3.6.63-1.08.38.07a2.94,2.94,0,0,0,1.17-.1l.67,1.16-.31-.06A7.43,7.43,0,0,0,14.09,7.22Zm1.33-5.78a1.68,1.68,0,1,1-1.68,1.68A1.69,1.69,0,0,1,15.42,1.44ZM10.64,6.75,13.2,5.27l.24.23L12,7.91a7.73,7.73,0,0,0-1.5,1,6.83,6.83,0,0,0-.82.82H6.17a2.91,2.91,0,0,0-.08-.33ZM6.09,11.14h2.7A7.59,7.59,0,0,0,8,14.48c0,.13,0,.27,0,.4l-.69,1.19L5.24,12.5A3.16,3.16,0,0,0,6.09,11.14ZM5.5,15.79l1,1.7-.35.6L4,21.75l-.19-.06V13.28L4,13.23ZM1.43,10.25a1.68,1.68,0,1,1,1.68,1.68A1.7,1.7,0,0,1,1.43,10.25ZM3.11,26.41a1.68,1.68,0,1,1,1.68-1.68A1.69,1.69,0,0,1,3.11,26.41Zm3.43-.68-.42-.24h0a3,3,0,0,0,.09-.57h.57A3.65,3.65,0,0,0,6.54,25.74Zm1.34-2.25H5.94a3.23,3.23,0,0,0-.71-1l1.5-2.58.58-1,2.22,3.83A3.66,3.66,0,0,0,7.88,23.48ZM16.34,25H14.48v-.87h1.87Zm3.51-2.29H11.14l-3-5.2.3-.52a7.39,7.39,0,0,0,3.76,4.17,7.47,7.47,0,0,0,8-1.08,7.15,7.15,0,0,0,2.21-3.38l.46.8Zm4.36,3.19a3.64,3.64,0,0,0-.27-1h.84a3.19,3.19,0,0,0,.1.58Zm.91-2.58-.09.19H22.85a3.66,3.66,0,0,0-1.41-.69l2.25-3.88,2.07,3.57A3.06,3.06,0,0,0,25.13,23.3Zm2.76,3.12a1.68,1.68,0,1,1,1.68-1.68A1.69,1.69,0,0,1,27.89,26.41Zm-11.44.76H14.35A1.33,1.33,0,0,0,13,28.53v3.85a.71.71,0,0,0,1.43,0V28.6h1.86v3.77a.71.71,0,0,0,.71.71h0a.71.71,0,0,0,.71-.72V28.53A1.33,1.33,0,0,0,16.44,27.18Z"/></svg>