<svg id="Isolation_Mode" data-name="Isolation Mode" xmlns="http://www.w3.org/2000/svg" width="34" height="35.07" viewBox="0 0 34 35.07"><defs><style>.cls-1{fill:#fff;}</style></defs><title>man-statistic</title><path class="cls-1" d="M5.6,7.25a3.74,3.74,0,0,0,4.17-1.7A3.74,3.74,0,0,0,9.2,1.07,3.7,3.7,0,0,0,2.89,3.68a.89.89,0,0,0,0,.09A3.75,3.75,0,0,0,5.6,7.25Zm1-5.73A2.18,2.18,0,0,1,8.75,3.68a2.16,2.16,0,0,1-4.32,0A2.19,2.19,0,0,1,6.58,1.52ZM7.35,16V12a.77.77,0,0,0-1.53,0v4A.77.77,0,0,0,7.35,16Zm10.81-5.25-3.52,2-1.81-2.52,0-.08c-.12-.21-1.2-2-2.67-2H6.41a.76.76,0,0,0-.25,0H2.71A2.71,2.71,0,0,0,0,10.84v9.73a.77.77,0,1,0,1.53,0V10.84A1.17,1.17,0,0,1,2.71,9.67H5.82v.4a.77.77,0,1,0,1.53,0V9.62h2.77a1.42,1.42,0,0,1,.82.54l2.82,3.92a.78.78,0,0,0,1,.27L18.93,12A.77.77,0,0,0,18.16,10.71ZM9.51,19.39V32.8a1.11,1.11,0,0,1-.1.54.43.43,0,0,1-.16.17c.06,0-.1,0,0,0H7.35V21.38a.77.77,0,0,0-1.53,0V33.54H3.9c.13,0,0-.05,0,0a.73.73,0,0,1-.24-.58c0-.08,0-.16,0-.24V19.42a.77.77,0,0,0-1.53,0V32.8A2.07,2.07,0,0,0,4,35.07H8.82A2.84,2.84,0,0,0,9.69,35,2.13,2.13,0,0,0,11,32.92V19.39A.77.77,0,0,0,9.51,19.39Zm23.59-5.86L32.28,13a.76.76,0,0,0-1.13.77H21.38V4a.76.76,0,0,0,.77-1.13l-.49-.77c-.24-.39-.48-.94-1-.94s-.78.48-1,.89l-.52.83A.76.76,0,0,0,19.84,4V14.27a1.06,1.06,0,0,0,1.1,1H31.15a.76.76,0,0,0,1.13.77l.77-.49c.39-.24.94-.48.94-1S33.52,13.79,33.11,13.53ZM22.27,12.21a.78.78,0,0,0,1-.28l2.85-3.79,1.49,1.29a.77.77,0,0,0,1.08,0L32.44,5a.78.78,0,0,0,0-1.08.77.77,0,0,0-1.08,0L28.12,7.8,26.6,6.49a.78.78,0,0,0-1.2.15L22,11.16A.77.77,0,0,0,22.27,12.21Z"/></svg>