<svg id="Isolation_Mode" data-name="Isolation Mode" xmlns="http://www.w3.org/2000/svg" width="29" height="34.21" viewBox="0 0 29 34.21"><defs><style>.cls-1{fill:#fff;}</style></defs><title>money-shield</title><path class="cls-1" d="M27.08,1.85A1.53,1.53,0,0,0,25.59.38C25.19.35,20.75,0,14.37,0S3.81.35,3.41.38A1.53,1.53,0,0,0,1.92,1.85C1.79,2.72,0,15.13,0,22.41c0,2.22,2.36,4.8,7.22,7.89a69.28,69.28,0,0,0,7,3.84.77.77,0,0,0,.65,0,69.39,69.39,0,0,0,7-3.84C26.64,27.21,29,24.63,29,22.41,29,15.42,27.22,2.85,27.08,1.85ZM21,29a69.54,69.54,0,0,1-6.47,3.6A69.39,69.39,0,0,1,8,29c-5.66-3.6-6.51-5.68-6.51-6.6C1.53,15,3.42,2.16,3.44,2a.75.75,0,0,0,0-.11h.07s4.27-.38,10.85-.38,11.07.38,11.11.38h.07a.78.78,0,0,0,0,.11c0,.13,1.91,13.37,1.91,20.38C27.47,23.32,26.62,25.4,21,29ZM24.66,4.71a1.38,1.38,0,0,0-1.34-1.31c-.34,0-3.87-.3-8.92-.3s-8.37.28-8.72.3A1.38,1.38,0,0,0,4.34,4.71,145.38,145.38,0,0,0,2.82,21.06c0,1.82,1.9,3.91,5.81,6.4a55.28,55.28,0,0,0,5.54,3.06.77.77,0,0,0,.65,0,55.33,55.33,0,0,0,5.54-3.06c3.91-2.49,5.81-4.58,5.81-6.4A154.25,154.25,0,0,0,24.66,4.71Zm-5.1,21.45A55.05,55.05,0,0,1,14.5,29a54.85,54.85,0,0,1-5-2.81c-4.6-2.93-5.1-4.55-5.1-5.11A146.81,146.81,0,0,1,5.86,4.93c.52,0,3.74-.3,8.54-.3s8.19.25,8.74.3a155.67,155.67,0,0,1,1.51,16.14C24.65,21.62,24.15,23.24,19.55,26.17ZM17.21,15.3l-.4-.18L16.36,15l-.43-.1-.6-.13V12.61a1,1,0,0,1,.58.34,1.34,1.34,0,0,1,.23.77.35.35,0,0,0,.11.22.36.36,0,0,0,.26.1h.77c.18,0,.28,0,.32-.12a.93.93,0,0,0,.06-.26,2.23,2.23,0,0,0-.2-1,1.76,1.76,0,0,0-.62-.74,3.51,3.51,0,0,0-1.51-.55v-.52a.29.29,0,0,0-.11-.22.4.4,0,0,0-.27-.1H14.1a.39.39,0,0,0-.27.1.29.29,0,0,0-.11.21v.52a3.44,3.44,0,0,0-.88.19,3.05,3.05,0,0,0-.76.4,2.59,2.59,0,0,0-.57.57,1.83,1.83,0,0,0-.32.7h0a1.39,1.39,0,0,0-.06.36c0,.11,0,.21,0,.32V14a1.24,1.24,0,0,0,.22.74,1.87,1.87,0,0,0,.58.52,3.69,3.69,0,0,0,.83.36q.47.14,1,.25v2.09a1.28,1.28,0,0,1-.61-.29,1,1,0,0,1-.33-.52l0-.16s0-.08,0-.1v-.17a.5.5,0,0,0,0-.15.31.31,0,0,0-.34-.23h-.93c-.19,0-.3,0-.33.11a.58.58,0,0,0-.05.26c0,.11,0,.21,0,.31a2.22,2.22,0,0,0,.08.44,1.43,1.43,0,0,0,.34.62,2.5,2.5,0,0,0,.94.73,3.6,3.6,0,0,0,1.29.32v.46a.27.27,0,0,0,.11.21.41.41,0,0,0,.28.09h.83a.44.44,0,0,0,.29-.09.27.27,0,0,0,.11-.21v-.46a5.08,5.08,0,0,0,1-.16,2.56,2.56,0,0,0,.8-.37,1.75,1.75,0,0,0,.38-.36,2.5,2.5,0,0,0,.29-.46,2.64,2.64,0,0,0,.19-.53,2.33,2.33,0,0,0,.07-.55,1.41,1.41,0,0,0-.24-.82A1.7,1.7,0,0,0,17.21,15.3Zm-3.49-.93-.3-.07a1.13,1.13,0,0,1-.49-.25.48.48,0,0,1-.21-.38,2.12,2.12,0,0,1,0-.32h0a1,1,0,0,1,.35-.52,1.48,1.48,0,0,1,.62-.29ZM16.38,17a.84.84,0,0,1,0,.1s0,.07,0,.1a.88.88,0,0,1-.35.52,1.63,1.63,0,0,1-.67.29V16.09l.51.14a1.3,1.3,0,0,1,.36.17.44.44,0,0,1,.11.14.65.65,0,0,1,.06.16.51.51,0,0,1,0,.15S16.38,16.92,16.38,17Z"/></svg>