<svg id="Isolation_Mode" data-name="Isolation Mode" xmlns="http://www.w3.org/2000/svg" width="31" height="30.87" viewBox="0 0 31 30.87"><defs><style>.cls-1{fill:#fff;}</style></defs><title>money-man</title><path class="cls-1" d="M14.52,26.35l-.61-2.48-.19-.8a1.35,1.35,0,0,0-.13-.43L9.85,17.4a.86.86,0,0,0-.2-.2.67.67,0,0,0-.06-.12l.27-3.68a.68.68,0,0,0-.67-.67.69.69,0,0,0-.67.67l-.25,3.36H6.09L6.16,16,6.5,12a.68.68,0,0,0-.67-.67.69.69,0,0,0-.67.67L4.7,17.3a.67.67,0,0,0,0,.11h0l-.24,2.84L4.19,23.2.14,29.77l0,.07a.68.68,0,0,0,.58,1H3.77a.84.84,0,0,0,.84-.35l2.2-3.61,1-1.67.23-.38a1.23,1.23,0,0,0,.12-.56l.17-1.94,1.33,1.8.13.18.1.49.49,2.39L11,30.37a.67.67,0,0,0,.65.49h3.07a.68.68,0,0,0,.65-.85Zm-2.28,3.24-.71-3.46-.41-2a2.57,2.57,0,0,0-.57-1L8.39,20.24A.69.69,0,0,0,7.47,20a.71.71,0,0,0-.32.77l-.27,3.49L3.64,29.59H1.88l3.5-5.67a1.83,1.83,0,0,0,.17-.83l.15-1.74L6,18.17H8.69L11,21.41l1.25,1.75.12.17.08.32,1.45,5.93ZM5.54,6.39a3.8,3.8,0,0,0,4.25.79A3.78,3.78,0,0,0,12,3.57,3.76,3.76,0,0,0,5.54,1.14a3.8,3.8,0,0,0-.06,5.19Zm.75-4.07a2.41,2.41,0,0,1,1.4-.91,2.43,2.43,0,0,1,1.57.17,2.47,2.47,0,0,1,1.17,1.2,2.42,2.42,0,0,1,.1,1.67A2.46,2.46,0,0,1,7.7,6.11,2.41,2.41,0,0,1,6.29,2.32ZM2,16.57l.09,1a.69.69,0,0,0,.67.67.68.68,0,0,0,.67-.67l-.33-3.84,1.75-3.33.86-.15c.35-.05.85-.08,1.31-.1s1.09,0,1.63,0l.35,0,.12,0,.17,0,.23.07,0,0c-.06,0,.08.07.11.1l0,0,0,0,.1.16.09.17,0,.11a5.16,5.16,0,0,1,.19.61c0,.18.08.36.14.54l.6,2a.68.68,0,0,0,1,.4l3.85-2.73a.69.69,0,0,0,.24-.92.68.68,0,0,0-.92-.24l-3.14,2.22-.33-1.09a6.09,6.09,0,0,0-.77-2,2.06,2.06,0,0,0-1.44-.81,10.52,10.52,0,0,0-1.84-.08,19.26,19.26,0,0,0-3.09.33.9.9,0,0,0-.68.48l-.44.83-1.2,2.29-.28.52A1.23,1.23,0,0,0,1.8,14Zm14.85,4a3,3,0,0,0,1.31,2.09,4.41,4.41,0,0,0,2.38.68,12.58,12.58,0,0,0,2.28-.05,3.79,3.79,0,0,0,3.32-2,2.6,2.6,0,0,0-.06-2.11,2.55,2.55,0,0,0-1.77-1.25c-2-.57-4-.92-6-1.43a15.93,15.93,0,0,1-1.9-.62l-.15-.06-.09,0-.34-.15c-.25-.11-.5-.24-.74-.38l-.33-.2-.07,0-.11-.09-.09-.09,0,0v-.07a.68.68,0,0,0-.83-.47.69.69,0,0,0-.47.83A1.86,1.86,0,0,0,14,16.1a6.9,6.9,0,0,0,1.26.69,17.58,17.58,0,0,0,1.88.73c.92.3,1.88.49,2.83.71l2.89.66.51.13.59.16.27.08.2.06a.79.79,0,0,1,.46.42,1.21,1.21,0,0,1,.1.43c0,.06,0,.12,0,.18v.06a1.65,1.65,0,0,1-1.1,1.23,3.4,3.4,0,0,1-.77.22H23l-.48.05a12.31,12.31,0,0,1-2.38,0,2.31,2.31,0,0,1-1.7-.86,1.32,1.32,0,0,1-.27-.74c0-.21,0-.42,0-.63a2.07,2.07,0,0,0-1-1.78,2.8,2.8,0,0,0-1.5-.23c-.67,0-1.35,0-2,0a1.28,1.28,0,0,0-1.35,1.07,3,3,0,0,0,0,1.2.67.67,0,0,0,1.3-.36v-.11c0-.08,0-.16,0-.24s0-.09,0-.14V19h.68c.56,0,1.12,0,1.68,0h.36c-.06,0,.13,0,.13,0h0l.05,0,0,0,0,0,0,0,.07.12c0-.1,0,.13,0,.14a.86.86,0,0,0,0,.17c0,.06,0,.13,0,.19A7,7,0,0,0,16.86,20.53ZM13.59,19h0Zm17.27-.5a5,5,0,0,0-1.11-2.14,8,8,0,0,0-4.26-2.25c-1.92-.49-3.85-.93-5.77-1.43l-.62-.15a1.71,1.71,0,0,1-1-.55.71.71,0,0,1-.12-.22,1.25,1.25,0,0,1,0-.15c0,.13,0-.07,0-.08s0-.06,0-.09h0v0l0-.1A2,2,0,0,1,19.26,10l.28-.09.11,0,.18,0c.34,0,.69-.06,1-.07a10.06,10.06,0,0,1,2.38.12,1.32,1.32,0,0,1,1,1.06,5,5,0,0,1,.12.87A2.09,2.09,0,0,0,25,13.06a2.06,2.06,0,0,0,1.59.56h1.29a4,4,0,0,0,1.28-.12c1.11-.37,1.19-1.63,1.14-2.61a6.92,6.92,0,0,0-.92-3.11,7.43,7.43,0,0,0-4.92-3.17V4.34A2.11,2.11,0,0,0,24,2.93c-.61-.77-1.61-.68-2.48-.68H20.6a2.29,2.29,0,0,0-1.06.25,2.09,2.09,0,0,0-1,2.17c-2.81.62-5.69,2.64-6,5.85a.7.7,0,0,0,.68.71.71.71,0,0,0,.68-.71,4.51,4.51,0,0,1,1.61-2.87A6.91,6.91,0,0,1,19.2,6a.71.71,0,0,0,.68-.71V4.17s0-.11,0-.1A.39.39,0,0,1,20,3.89a.63.63,0,0,1,.6-.22h1.71a.72.72,0,0,1,.61.22c.16.16.12.33.12.62v.75a.67.67,0,0,0,.5.65A6.9,6.9,0,0,1,27.63,8a4.8,4.8,0,0,1,.92,1.92,4.17,4.17,0,0,1,.05,2.18s0,0,0,0-.07.06,0,0h-.06l-.14,0a3.9,3.9,0,0,1-.43,0H26.28a.55.55,0,0,1-.44-.15c-.2-.19-.16-.33-.19-.6a4.61,4.61,0,0,0-.24-1.19,2.63,2.63,0,0,0-1.86-1.69,10.24,10.24,0,0,0-2.87-.16c-.32,0-.64,0-1,.08a3.81,3.81,0,0,0-1.18.36,3.24,3.24,0,0,0-1.7,1.86.52.52,0,0,0-.08.2,2.23,2.23,0,0,0,.29,1.83,3,3,0,0,0,1.82,1.1l1.42.35c1.61.42,3.22.79,4.83,1.2a6.07,6.07,0,0,1,3.68,2.13c1.1,1.62.61,4-.28,5.55a4.82,4.82,0,0,1-2,2,7.86,7.86,0,0,1-2.84.76.69.69,0,0,0-.68.68v.91a.42.42,0,0,1-.17.32c-.32.24-1,.14-1.4.14h-.79a.87.87,0,0,1-.53-.09.75.75,0,0,1-.17-.18s-.05-.13-.05-.11a2.73,2.73,0,0,1,0-.3v-.71a.71.71,0,0,0-.71-.67A8.07,8.07,0,0,1,17,25.24c-.32-.13-.62-.29-.93-.43l-.34-.17a1.26,1.26,0,0,1-.28-.21.75.75,0,0,0-1,0,.65.65,0,0,0,0,1,6.91,6.91,0,0,0,1.93,1.06,9.78,9.78,0,0,0,2,.57v.6a1.9,1.9,0,0,0,.63,1.45,3.21,3.21,0,0,0,2.34.5,3.3,3.3,0,0,0,2.34-.49,1.86,1.86,0,0,0,.65-1.45v-.23a8.45,8.45,0,0,0,4.09-1.65,7.38,7.38,0,0,0,2.38-4.51A7.16,7.16,0,0,0,30.86,18.52Zm-2.21-6.41h0Z"/></svg>