<svg id="Icon" xmlns="http://www.w3.org/2000/svg" width="28" height="27.8" viewBox="0 0 28 27.8"><defs><style>.cls-1{fill:#fff;}</style></defs><title>television</title><path class="cls-1" d="M27.7,8.15a1.35,1.35,0,0,0-1.11-.43H15.1l3.45-5.51L19.38.9c.42-.67-.64-1.28-1.06-.61l-4,6.42-.3.48L10.45,1.62,9.6.29C9.18-.37,8.12.24,8.54.9l4.08,6.4.27.42H1.25A1.24,1.24,0,0,0,0,8.79a.66.66,0,0,0,0,.14V26.47a1.25,1.25,0,0,0,1.23,1.31H25.61a9.17,9.17,0,0,0,1.46,0A1.26,1.26,0,0,0,28,26.38V9.24A1.57,1.57,0,0,0,27.7,8.15ZM26.6,26.6s0,0,0,0H1.26v-.14s0,0,0,0,0,0,0,0H1.17L1.4,8.82v.09s0,0,0,0,0,0,0,0H26.58s0,0,0,0h0Zm.11-.16Zm0,0h0ZM18.12,10.29H4.62a2.85,2.85,0,0,0-.88.07,1.39,1.39,0,0,0-.94,1.31V23.47a2.64,2.64,0,0,0,0,.38A1.37,1.37,0,0,0,4.17,25h14a1.39,1.39,0,0,0,1.4-1.26.69.69,0,0,0,0-.1v-12A1.4,1.4,0,0,0,18.12,10.29Zm.27,13.36,0,0,0,0-.06,0c.07,0-.07,0,0,0a.44.44,0,0,0,0,.09H4.08c.07,0,0,0,0,0S4,23.7,4,23.73s0,0,0-.09v-12s0-.07,0-.06.14-.11.07-.07l0,0s0,0,.06,0,0,0,0,0h14s.18,0,.11,0h.06l0,0c-.07,0,.07.06.07.07s0,.1-.19.06v12c.19,0,.18.08.23.06h0S18.39,23.64,18.39,23.65Zm5.33-3.5a16.08,16.08,0,0,0-2.09,0,1.38,1.38,0,0,0-1.09,1.36v2.28A1.42,1.42,0,0,0,22,25.22h1.55a2.06,2.06,0,0,0,.82-.13,1.37,1.37,0,0,0,.81-1.14.71.71,0,0,0,0-.1v-1.9a2.4,2.4,0,0,0-.13-1A1.43,1.43,0,0,0,23.71,20.14Zm-1.65,1.1c-.07,0,.07,0,0,0h1.77s0,0,0,0h.06l0,0c-.05,0,0,0,.06.06s0,.06,0,.06,0,.07,0,.15V22h-2.1v-.53s0-.07,0,0A.24.24,0,0,1,22.06,21.24Zm2,2.5,0,0,0,0s0,0-.06,0-.11,0,0,0H22c.08,0-.09,0,0,0-.09-.07-.07-.07-.1-.13s0-.07,0,0v-.53H24v.53s0,.08,0,.06h0ZM22.9,10.43a2.33,2.33,0,1,0,2.33,2.42.73.73,0,0,0,0-.08.71.71,0,0,0,0-.08A2.37,2.37,0,0,0,22.9,10.43Zm0,3.45A1.12,1.12,0,1,1,24,12.76,1.12,1.12,0,0,1,22.9,13.88Zm1.72,3.75a.68.68,0,0,0,0-.14.66.66,0,0,0,0-.14,1.73,1.73,0,1,0,0,.29Zm-2.22-.14a.51.51,0,1,1,.15.36A.52.52,0,0,1,22.39,17.48ZM8.85,13.32h0a.62.62,0,0,0-.61.47.59.59,0,0,0,.57.7h0A.61.61,0,0,0,9.42,14,.59.59,0,0,0,8.85,13.32Zm-1.94-.05a1.59,1.59,0,0,0-.92.14,1,1,0,0,0-.39.85v4.43a.58.58,0,1,0,1.17,0v-4.2h.15A.61.61,0,0,0,6.91,13.27Z"/></svg>