<svg id="Layer_3" data-name="Layer 3" xmlns="http://www.w3.org/2000/svg" width="18" height="22.77" viewBox="0 0 18 22.77"><title>notepad</title><path d="M11.5,22a.5.5,0,0,1-.5-.5V16.27a.5.5,0,0,1,.5-.5h5.22a.5.5,0,1,1,0,1H12V21.5a.5.5,0,0,1-.5.5Z"/><path d="M12,22.17a.5.5,0,0,1-.35-.85l5.22-5.22a.5.5,0,0,1,.71.71L12.35,22a.5.5,0,0,1-.35.15Z"/><path d="M9.45,7.77H4.33a.5.5,0,1,1,0-1H9.45a.5.5,0,0,1,0,1Z"/><path d="M12.82,10.77H4.34a.5.5,0,1,1,0-1h8.49a.5.5,0,0,1,0,1Z"/><path d="M12.82,13.77H4.33a.5.5,0,1,1,0-1h8.49a.5.5,0,0,1,0,1Z"/><path d="M7.89,16.77H4.33a.5.5,0,1,1,0-1H7.89a.5.5,0,0,1,0,1Z"/><path d="M17.49,22.77H.5a.5.5,0,0,1-.5-.5v-21A.5.5,0,0,1,.5.77H4.17a.5.5,0,0,1,0,1H1v20H17v-20H13.79a.5.5,0,1,1,0-1H17.5a.5.5,0,0,1,.5.5v21a.5.5,0,0,1-.51.49Z"/><path d="M12.21,3.25H5.46A1.62,1.62,0,1,1,5.46,0h6.75a1.62,1.62,0,1,1,0,3.25ZM5.46,1a.62.62,0,1,0,0,1.25h6.75a.62.62,0,1,0,0-1.25Z"/></svg>